<svg width="24" height="25" viewBox="0 0 24 25" fill="none" xmlns="http://www.w3.org/2000/svg">
<path fill-rule="evenodd" clip-rule="evenodd" d="M11.9531 1.97949C12.1219 1.97949 12.4359 2.00762 12.6562 2.04512C12.8765 2.0873 13.2 2.15762 13.3828 2.20449C13.5656 2.25605 13.8562 2.36387 14.039 2.44355C14.2219 2.52324 14.5359 2.70137 14.7422 2.8373C14.9578 2.98262 15.2859 3.26855 15.5156 3.50762C15.75 3.75605 16.0031 4.08418 16.125 4.2998C16.2422 4.50605 16.3828 4.7873 16.439 4.92793C16.4953 5.06855 16.5797 5.32168 16.6265 5.49043C16.7062 5.77168 16.7109 6.08574 16.7109 13.7639L16.5797 14.1857C16.5047 14.4154 16.3594 14.7764 16.2515 14.9826C16.139 15.1889 15.9562 15.4842 15.839 15.6389C15.7172 15.7936 15.4781 16.0561 15.3 16.2201C15.1219 16.3889 14.8406 16.6139 14.6719 16.7217C14.5031 16.8295 14.2219 16.9842 14.039 17.0686C13.8562 17.1482 13.5094 17.2748 13.2656 17.3404C12.8672 17.4529 12.7406 17.467 12.0234 17.467C11.3953 17.467 11.1515 17.4482 10.875 17.3779C10.6828 17.3311 10.364 17.2279 10.1719 17.1529C9.97967 17.0779 9.65623 16.9139 9.44998 16.7967C9.24842 16.6748 8.92498 16.4264 8.72342 16.2436C8.52654 16.0607 8.26404 15.7795 8.13748 15.6107C8.0156 15.4467 7.83279 15.1514 7.73435 14.9592C7.6406 14.767 7.51404 14.4717 7.46248 14.3029C7.40623 14.1342 7.3406 13.8717 7.31248 13.717C7.28435 13.5342 7.2656 12.1326 7.2656 9.75605C7.2656 7.37949 7.28435 5.97793 7.31248 5.79512C7.3406 5.64043 7.40623 5.37793 7.46248 5.20918C7.51404 5.04043 7.6406 4.74512 7.73435 4.55293C7.83279 4.36074 8.0156 4.06543 8.13748 3.90137C8.26404 3.73262 8.52654 3.45137 8.72342 3.26855C8.92498 3.08574 9.24842 2.8373 9.44998 2.71543C9.65623 2.59824 9.97967 2.43418 10.1719 2.35918C10.364 2.28418 10.6828 2.18574 10.875 2.14355C11.0672 2.10137 11.3203 2.0498 11.4375 2.02637C11.5547 2.00293 11.7844 1.98418 11.9531 1.97949ZM10.4156 3.89199C10.1203 4.04199 9.94217 4.17324 9.64217 4.47324C9.35623 4.75918 9.21092 4.94668 9.07967 5.20918C8.98592 5.40137 8.87342 5.6873 8.83592 5.84199C8.77498 6.08105 8.7656 6.66699 8.7656 9.75605C8.7656 12.8451 8.77498 13.4311 8.83592 13.6701C8.87342 13.8248 8.98592 14.1107 9.07967 14.3029C9.21092 14.5607 9.35623 14.7529 9.63279 15.0295C9.93748 15.3389 10.0922 15.4467 10.4531 15.6248C10.6969 15.7467 11.0531 15.8779 11.2359 15.9154C11.4234 15.9576 11.7703 15.9904 12 15.9904C12.2297 15.9904 12.5765 15.9576 12.7594 15.9154C12.9469 15.8779 13.2937 15.7514 13.5234 15.6389C13.7859 15.5076 14.0578 15.3295 14.2453 15.1607C14.414 15.0107 14.6437 14.7436 14.7656 14.5607C14.8828 14.3779 15.0328 14.0967 15.0937 13.9279L15.2109 13.6232C15.2344 6.64824 15.225 6.08574 15.164 5.84199C15.1265 5.6873 15.014 5.40137 14.9203 5.20918C14.789 4.95137 14.6437 4.75449 14.3672 4.48262C14.0578 4.16855 13.9125 4.06543 13.5469 3.8873C13.3031 3.76543 12.9469 3.63418 12.7594 3.59668C12.5719 3.55449 12.2203 3.52168 11.9625 3.52637C11.6859 3.52637 11.3672 3.56387 11.1562 3.61543C10.964 3.6623 10.6312 3.78887 10.4156 3.89199ZM2.83592 3.00605C2.91092 3.00605 3.07029 3.05293 3.18279 3.10918C3.30467 3.1748 3.42185 3.28262 3.4781 3.38105C3.54373 3.50293 3.56248 3.61074 3.5531 3.80293C3.53904 4.00449 3.49685 4.1123 3.37498 4.29512C3.28592 4.42637 3.14529 4.67949 3.06092 4.85762C2.97654 5.03574 2.87342 5.33574 2.83592 5.51387C2.79842 5.69199 2.7656 6.02481 2.7656 6.25449C2.7656 6.47949 2.79842 6.81699 2.8406 7.00449C2.88279 7.1873 2.98592 7.49199 3.0656 7.67012C3.14998 7.84824 3.29529 8.11543 3.39373 8.25605C3.53435 8.46699 3.56717 8.55605 3.56717 8.74824C3.56717 8.9123 3.53435 9.02949 3.45935 9.14668C3.39373 9.24512 3.25779 9.35762 3.11717 9.42324C2.90154 9.53105 2.86404 9.53574 2.67185 9.47949C2.55467 9.44668 2.39998 9.36699 2.32967 9.29668C2.25467 9.22637 2.10467 9.02012 1.99217 8.84199C1.87967 8.66387 1.72498 8.36387 1.64529 8.18574C1.57029 8.00762 1.46717 7.69824 1.4156 7.50605C1.36404 7.31387 1.29373 6.95293 1.2656 6.70918C1.21404 6.3248 1.21404 6.18887 1.28435 5.70137C1.32654 5.39199 1.42498 4.95605 1.50467 4.72637C1.57967 4.50137 1.69685 4.20605 1.76248 4.0748C1.83279 3.93887 1.98279 3.68105 2.10467 3.50293C2.26404 3.25918 2.36717 3.15605 2.50779 3.09043C2.61092 3.04355 2.75623 3.00605 2.83592 3.00605ZM21.164 3.00605C21.239 3.00605 21.389 3.04355 21.4922 3.09043C21.6328 3.15605 21.7359 3.25918 21.8953 3.50293C22.0172 3.68105 22.1672 3.93887 22.2375 4.0748C22.3031 4.20605 22.4203 4.50137 22.4953 4.73105C22.5703 4.95605 22.6687 5.38262 22.7156 5.67793C22.7859 6.14199 22.7906 6.27793 22.739 6.6623C22.7062 6.90605 22.6359 7.27637 22.5844 7.48262C22.5328 7.68887 22.4297 8.00762 22.3547 8.18574C22.275 8.36387 22.1203 8.66387 22.0078 8.84199C21.8953 9.02012 21.7453 9.22637 21.6703 9.29668C21.6 9.36699 21.4453 9.44668 21.3281 9.47949C21.1359 9.53574 21.0984 9.53105 20.8828 9.42324C20.7422 9.35762 20.6062 9.24512 20.5406 9.14668C20.4656 9.02949 20.4328 8.9123 20.4328 8.74824C20.4328 8.55605 20.4656 8.46699 20.6062 8.25605C20.7047 8.11543 20.85 7.84824 20.9344 7.67012C21.014 7.49199 21.1172 7.1873 21.1594 7.00449C21.2015 6.81699 21.2344 6.47949 21.2344 6.25449C21.2344 6.02481 21.2015 5.69199 21.164 5.51387C21.1265 5.33574 21.0234 5.03574 20.939 4.85762C20.8547 4.67949 20.714 4.42637 20.625 4.29512C20.5031 4.1123 20.4609 4.00449 20.4469 3.80293C20.4375 3.61074 20.4562 3.50293 20.5219 3.38105C20.5781 3.28262 20.6953 3.1748 20.8172 3.11387C20.9297 3.05293 21.0844 3.00605 21.164 3.00605ZM5.47029 11.0217C5.58279 11.0217 5.74685 11.0592 5.8406 11.1061C5.93904 11.1482 6.05623 11.2514 6.11248 11.3264C6.20623 11.4576 6.21092 11.5467 6.23904 12.8967C6.26717 14.1529 6.28123 14.3732 6.37029 14.7248C6.42654 14.9451 6.54373 15.2686 6.6281 15.4514C6.71248 15.6342 6.87185 15.9154 6.98435 16.0842C7.09685 16.2529 7.35935 16.5576 7.5656 16.7639C7.77654 16.9701 8.08123 17.2373 8.24998 17.3592C8.41873 17.4764 8.7656 17.6779 9.02342 17.8092C9.28123 17.9357 9.69373 18.1092 9.93748 18.1842C10.1812 18.2639 10.5844 18.3623 10.8281 18.4045C11.1281 18.4607 11.5172 18.4842 12.0234 18.4842C12.5906 18.4842 12.8953 18.4607 13.2656 18.3857C13.5375 18.3342 13.9359 18.2264 14.1562 18.1561C14.3765 18.0811 14.714 17.9451 14.9062 17.8514C15.0984 17.7576 15.4265 17.5701 15.6328 17.4342C15.839 17.2982 16.1906 17.0076 16.4109 16.7873C16.6359 16.567 16.9172 16.2295 17.0437 16.0373C17.1656 15.8451 17.325 15.5545 17.4 15.3951C17.4703 15.2311 17.5781 14.9264 17.6297 14.7154C17.7187 14.3779 17.7328 14.1389 17.7609 12.8967C17.789 11.5467 17.7937 11.4576 17.8875 11.3264C17.9437 11.2514 18.0609 11.1482 18.1594 11.1061C18.2531 11.0592 18.4172 11.0217 18.5297 11.0217C18.6562 11.0217 18.7828 11.0545 18.8859 11.1248C18.975 11.1857 19.0922 11.3076 19.1437 11.3967C19.2375 11.5514 19.2422 11.6311 19.2422 12.9436C19.2375 14.092 19.2234 14.3967 19.1531 14.7482C19.1062 14.9779 19.0031 15.3482 18.9281 15.5686C18.8484 15.7889 18.7219 16.0936 18.6469 16.2482C18.5672 16.4029 18.375 16.7217 18.2156 16.9514C18.0609 17.1811 17.7187 17.5842 17.4609 17.842C17.1515 18.1561 16.8094 18.4373 16.4531 18.6717C16.1578 18.8686 15.7265 19.1217 15.4922 19.2295C15.2625 19.3373 14.8594 19.4967 14.6015 19.5857C14.3437 19.6701 13.9219 19.7826 13.664 19.8295C13.4062 19.8811 13.0969 19.9326 12.75 19.9748V21.9904L13.9828 22.0045C15.164 22.0139 15.2156 22.0186 15.389 22.1217C15.4875 22.1779 15.6047 22.3045 15.6562 22.4123C15.7078 22.5154 15.75 22.6654 15.75 22.7404C15.75 22.8154 15.7265 22.9373 15.6984 23.0123C15.6703 23.0826 15.6047 23.1904 15.5484 23.2467C15.4922 23.3076 15.3656 23.4014 15.2719 23.4482C15.1031 23.5326 14.9484 23.5373 12 23.5373C9.05154 23.5373 8.89685 23.5326 8.73279 23.4482C8.63435 23.4014 8.50779 23.3076 8.45154 23.2467C8.39529 23.1904 8.32967 23.0826 8.30154 23.0123C8.27342 22.9373 8.24998 22.8107 8.24998 22.7311C8.24998 22.6467 8.29685 22.492 8.35779 22.3936C8.41404 22.2904 8.53592 22.1639 8.62498 22.1123C8.77967 22.0186 8.87342 22.0139 11.25 21.9904V19.9748L11.0297 19.9467C10.9031 19.9326 10.5844 19.8764 10.3125 19.8248C10.0406 19.7732 9.60935 19.6561 9.35154 19.567C9.09373 19.4779 8.69529 19.3139 8.46092 19.2061C8.23123 19.0936 7.80935 18.8451 7.52342 18.6576C7.2281 18.4561 6.82498 18.1326 6.58123 17.8889C6.34685 17.6592 6.0281 17.2982 5.8781 17.092C5.72342 16.8857 5.5031 16.5248 5.38592 16.2951C5.26404 16.0654 5.11404 15.7045 5.04373 15.4982C4.9781 15.292 4.88904 14.9639 4.84685 14.7717C4.79529 14.5139 4.76717 14.0451 4.74842 13.0373C4.72967 11.6592 4.72967 11.6545 4.83748 11.4436C4.89842 11.3264 5.0156 11.1857 5.10467 11.1295C5.21248 11.0592 5.33904 11.0217 5.47029 11.0217ZM5.3906 3.99043C5.4281 3.99043 5.53592 4.00918 5.62498 4.03262C5.71404 4.05605 5.85935 4.15449 5.94373 4.24355C6.02342 4.3373 6.11248 4.48262 6.13592 4.56699C6.15935 4.64668 6.16404 4.79199 6.14529 4.88105C6.12654 4.97012 6.04685 5.15293 5.96717 5.27949C5.88748 5.41074 5.78435 5.64043 5.74217 5.79512C5.68123 5.99668 5.66717 6.17012 5.68592 6.40449C5.70467 6.67637 5.74685 6.80293 5.92967 7.15449C6.10779 7.4873 6.15467 7.61855 6.14998 7.7873C6.14529 7.90449 6.1031 8.06387 6.05623 8.13887C6.00935 8.21855 5.89685 8.33105 5.80779 8.3873C5.67654 8.48105 5.60154 8.49512 5.3906 8.48105C5.22185 8.47168 5.08123 8.42949 4.98279 8.35918C4.89842 8.30293 4.74373 8.11543 4.6406 7.94199C4.53748 7.76387 4.39685 7.45449 4.33123 7.24824C4.25623 7.01387 4.19998 6.71387 4.18592 6.45137C4.16717 6.14668 4.18123 5.91699 4.23748 5.63105C4.28435 5.41074 4.39217 5.07324 4.48592 4.88105C4.57498 4.68887 4.70623 4.4498 4.77654 4.34668C4.85623 4.23418 4.98279 4.13105 5.11404 4.07949C5.22654 4.03262 5.3531 3.99043 5.3906 3.99043ZM18.5859 3.99512C18.6375 3.99512 18.7687 4.03262 18.8812 4.08418C18.9937 4.13574 19.1437 4.2623 19.2234 4.37949C19.3078 4.4873 19.439 4.72637 19.5234 4.90449C19.6125 5.0873 19.7156 5.41074 19.7625 5.63105C19.8187 5.91699 19.8328 6.14668 19.814 6.45137C19.8 6.71387 19.7437 7.01387 19.6687 7.24824C19.6031 7.45449 19.4625 7.76387 19.3594 7.94199C19.2562 8.11543 19.1015 8.30293 19.0219 8.35918C18.9187 8.42949 18.7781 8.47168 18.6094 8.48105C18.3984 8.49512 18.3234 8.48105 18.1922 8.3873C18.1031 8.33105 17.9906 8.21855 17.9437 8.13887C17.8969 8.06387 17.8547 7.90449 17.85 7.7873C17.8469 7.64668 17.8781 7.51387 17.9437 7.38887C18 7.28574 18.1031 7.08418 18.1734 6.94355C18.2531 6.7748 18.3047 6.57793 18.3187 6.38105C18.3328 6.1748 18.314 5.98262 18.2578 5.79512C18.2156 5.64043 18.1172 5.42012 18.0422 5.30293C17.9719 5.18574 17.8875 5.03105 17.864 4.95137C17.8359 4.8623 17.8406 4.73105 17.8687 4.5998C17.8922 4.48262 17.9719 4.31855 18.0422 4.23418C18.1125 4.1498 18.2437 4.06074 18.3328 4.04199C18.4219 4.01855 18.5344 3.99512 18.5859 3.99512Z" fill="#579BC3"/>
</svg>
