<svg width="24" height="25" viewBox="0 0 24 25" fill="none" xmlns="http://www.w3.org/2000/svg">
<path fill-rule="evenodd" clip-rule="evenodd" d="M11.8968 2.7296C14.9062 2.72491 15.825 2.73897 16.5093 2.79522C16.9828 2.83741 17.5546 2.89835 17.789 2.93585C18.0187 2.97335 18.3984 3.05772 18.6328 3.12335C18.8625 3.18897 19.2656 3.34366 19.5234 3.47491C19.7812 3.60147 20.1281 3.8171 20.2921 3.95303C20.4609 4.08897 20.7 4.32804 20.8218 4.48272C20.9484 4.63741 21.1546 4.97491 21.2812 5.23272C21.4125 5.49054 21.5671 5.8796 21.6281 6.09991C21.689 6.32022 21.7734 6.69991 21.8156 6.94366C21.8531 7.18741 21.9187 7.7921 21.9609 8.2796C22.0171 8.96866 22.0312 9.9671 22.0312 12.7327C22.0312 15.4749 22.0171 16.5062 21.9609 17.2093C21.9234 17.7108 21.8578 18.3249 21.8156 18.5687C21.7734 18.8124 21.689 19.1921 21.6281 19.4124C21.5671 19.6327 21.4125 20.0218 21.2812 20.2796C21.1546 20.5374 20.939 20.8843 20.8031 21.0483C20.6671 21.2171 20.4281 21.4562 20.2734 21.578C20.1187 21.7046 19.7812 21.9108 19.5234 22.0374C19.2656 22.1687 18.8765 22.3233 18.6562 22.3843C18.4359 22.4452 18.0562 22.5296 17.8125 22.5718C17.5687 22.6093 16.9781 22.6749 16.5 22.7171C15.8203 22.7733 14.85 22.7874 12 22.7874C9.14996 22.7874 8.17965 22.7733 7.49996 22.7171C7.02183 22.6749 6.43121 22.6093 6.18746 22.5718C5.94371 22.5296 5.56402 22.4452 5.34371 22.3843C5.1234 22.3233 4.73433 22.1687 4.47652 22.0374C4.21871 21.9108 3.88121 21.7046 3.72652 21.578C3.57183 21.4562 3.33277 21.2171 3.19683 21.0483C3.0609 20.8843 2.84527 20.5374 2.71871 20.2796C2.58746 20.0218 2.43277 19.6327 2.37183 19.4124C2.3109 19.1921 2.22652 18.8124 2.18433 18.5687C2.14215 18.3249 2.07652 17.7015 2.03433 17.1858C1.9734 16.3983 1.96402 15.6249 1.98277 12.3108C1.99683 9.91554 2.02496 8.19054 2.05777 7.9046C2.0859 7.64679 2.14215 7.22491 2.18433 6.9671C2.22652 6.70929 2.3109 6.32022 2.37183 6.09991C2.43277 5.8796 2.58746 5.49054 2.71871 5.23272C2.84527 4.97491 3.0609 4.62804 3.19683 4.46397C3.33277 4.29522 3.57183 4.05616 3.72652 3.93429C3.88121 3.80772 4.21871 3.60147 4.47652 3.47491C4.73433 3.34366 5.1234 3.18897 5.34371 3.12804C5.56402 3.0671 5.95308 2.98272 6.2109 2.94054C6.46871 2.89366 7.00777 2.83272 7.40621 2.79991C7.92652 2.75304 9.20621 2.73429 11.8921 2.7296H11.8968ZM6.59996 4.89991C6.35152 4.9421 5.98121 5.02647 5.77965 5.0921C5.58277 5.15304 5.32496 5.26554 5.20777 5.34054C5.09058 5.41554 4.9359 5.53741 4.8609 5.61241C4.7859 5.68741 4.66402 5.8421 4.58902 5.95929C4.51402 6.07647 4.40152 6.33429 4.34058 6.53585C4.27496 6.73272 4.19058 7.10304 4.1484 7.35616C4.1109 7.6046 4.05933 8.19054 4.0359 8.6546C4.01246 9.11866 3.98902 10.0046 3.98902 10.6233C3.98902 11.2421 4.00308 11.7624 4.02183 11.7812C4.04527 11.7999 4.21871 11.664 4.4109 11.4812C4.60308 11.2983 4.94996 10.9937 5.18433 10.8108C5.41402 10.6233 5.77496 10.3608 5.98121 10.2249C6.18746 10.0937 6.50152 9.91085 6.68433 9.82647C6.86246 9.7421 7.1484 9.62491 7.31715 9.57335C7.4859 9.5171 7.75777 9.45147 7.92652 9.41866C8.10465 9.39054 8.43277 9.38116 8.7234 9.39522C8.99527 9.40929 9.35152 9.46554 9.52027 9.51241C9.68902 9.55929 9.9609 9.66241 10.1296 9.73272C10.2984 9.80772 10.6125 9.97647 10.8328 10.103C11.0531 10.2343 11.4656 10.5202 11.7468 10.7405C12.0515 10.9749 12.8296 11.7015 13.6546 12.5218C14.9671 13.8202 15.0562 13.8999 15.1406 13.8343C15.1875 13.7968 15.4171 13.628 15.6421 13.4593C15.8718 13.2952 16.2468 13.0562 16.4812 12.9343C16.7109 12.8124 17.0484 12.6624 17.2312 12.6015C17.414 12.5405 17.7046 12.4608 17.8875 12.428C18.0984 12.3905 18.389 12.3765 18.7078 12.3952C18.9796 12.4093 19.3453 12.4655 19.5281 12.5171C19.7109 12.5687 19.8937 12.6202 19.9359 12.6343C20.0156 12.6624 20.0203 12.5687 20.0203 11.1062C20.0156 10.2483 19.9968 9.15616 19.9734 8.67804C19.95 8.19991 19.8984 7.60929 19.8609 7.36554C19.8234 7.12179 19.7437 6.77022 19.6875 6.5921C19.6312 6.41397 19.5515 6.18897 19.5046 6.09991C19.4578 6.01085 19.3546 5.85147 19.2703 5.74835C19.1906 5.64522 19.0031 5.48116 18.8578 5.38272C18.7125 5.28428 18.4265 5.15304 18.225 5.08741C18.0281 5.02647 17.6578 4.9421 17.4046 4.89991C17.1562 4.86241 16.5703 4.81085 16.1062 4.78741C15.6421 4.76397 13.7343 4.74522 11.864 4.74991C9.99371 4.74991 8.14683 4.76866 7.76246 4.7921C7.3734 4.81085 6.85308 4.85772 6.59996 4.89991ZM7.63121 11.5983C7.4484 11.6827 7.15777 11.8468 6.98902 11.9593C6.82027 12.0718 6.50621 12.3108 6.2859 12.489C6.06558 12.6718 5.4609 13.2437 4.9359 13.7593L3.98902 14.7015C3.98902 15.7187 4.01246 16.3937 4.0359 16.8577C4.05933 17.3218 4.1109 17.9077 4.1484 18.1562C4.19058 18.4093 4.27496 18.7796 4.34058 18.9765C4.40152 19.178 4.51402 19.4358 4.58902 19.553C4.66402 19.6702 4.7859 19.8249 4.8609 19.8999C4.9359 19.9749 5.09058 20.0968 5.20777 20.1718C5.32496 20.2468 5.58277 20.3593 5.77965 20.4202C5.98121 20.4858 6.35152 20.5702 6.59996 20.6124C6.85308 20.6499 7.43902 20.7015 7.90308 20.7249C8.36715 20.7483 10.214 20.7671 12.0046 20.7671C13.7953 20.7671 15.6421 20.7483 16.1062 20.7249C16.5703 20.7015 17.1562 20.6499 17.4046 20.6124C17.6578 20.5702 18.0281 20.4858 18.225 20.4249C18.4265 20.3593 18.7125 20.228 18.8578 20.1296C19.0031 20.0312 19.1906 19.8671 19.2703 19.764C19.3546 19.6608 19.4578 19.5015 19.5046 19.4124C19.5515 19.3233 19.6312 19.103 19.6875 18.9202C19.7437 18.7374 19.8234 18.3905 19.8609 18.1468C19.8984 17.903 19.95 17.3124 19.9734 16.8343C19.9968 16.3562 20.0156 15.7421 20.0203 15.4608C20.0203 14.964 20.0203 14.9593 19.889 14.8702C19.8187 14.8233 19.6359 14.7202 19.4812 14.6405C19.3265 14.5655 19.1062 14.4765 18.989 14.4437C18.8718 14.4155 18.6421 14.3874 18.4734 14.3921C18.3 14.3921 18.0562 14.4296 17.9109 14.4812C17.7703 14.5327 17.5781 14.6077 17.489 14.6546C17.4 14.7015 17.189 14.8327 17.0203 14.9405C16.8515 15.053 16.664 15.189 16.5984 15.2405L16.4812 15.3296C17.5968 16.4546 17.8875 16.7827 17.9343 16.8905C17.9718 16.989 18.0046 17.153 18.0046 17.2562C18.0046 17.3593 17.9718 17.5233 17.9296 17.6171C17.8921 17.7155 17.8031 17.8562 17.7328 17.9265C17.6625 18.0015 17.5265 18.0999 17.4281 18.1515C17.325 18.203 17.1562 18.2405 17.0203 18.2405C16.889 18.2405 16.7062 18.2077 16.6078 18.1655C16.4859 18.1187 15.6375 17.2983 13.8093 15.4796C12.3656 14.0405 10.9828 12.6999 10.739 12.4983C10.4953 12.2968 10.1437 12.0343 9.96558 11.9171C9.78277 11.7999 9.50621 11.6499 9.34214 11.5749C9.18277 11.5046 8.92965 11.4296 8.77496 11.4062C8.62496 11.3874 8.38121 11.3874 8.23589 11.4062C8.09058 11.4296 7.81871 11.514 7.63121 11.5983ZM15.989 6.76085C16.1296 6.75616 16.35 6.78429 16.4812 6.8171C16.6078 6.8546 16.8281 6.94366 16.9687 7.01866C17.1046 7.09366 17.3203 7.25772 17.4421 7.38897C17.564 7.51554 17.7187 7.73585 17.7843 7.8671C17.8546 8.00304 17.9343 8.25616 17.9671 8.4296C18.0093 8.67804 18.0093 8.82335 17.9671 9.07647C17.939 9.2546 17.8546 9.52179 17.7843 9.66241C17.714 9.80304 17.55 10.028 17.4187 10.1593C17.2828 10.2952 17.0484 10.464 16.8562 10.5577C16.5421 10.7077 16.5093 10.7171 16.0125 10.7171C15.5062 10.7171 15.4828 10.7124 15.1406 10.5437C14.9156 10.4312 14.714 10.2905 14.5687 10.1358C14.4468 10.0046 14.2781 9.75616 14.1937 9.57804C14.0531 9.28272 14.0437 9.23585 14.0437 8.74835C14.0437 8.25147 14.0484 8.21866 14.2031 7.9046C14.2921 7.72179 14.4609 7.47803 14.5781 7.36085C14.6953 7.24366 14.8875 7.09366 15.0046 7.02335C15.1218 6.95772 15.3328 6.86866 15.4734 6.83116C15.614 6.79366 15.8484 6.76085 15.989 6.76085Z" fill="#579BC3"/>
</svg>
